<svg viewBox="0 0 22 29" fill="none" xmlns="http://www.w3.org/2000/svg">
<path fill-rule="evenodd" clip-rule="evenodd" d="M0 2.33008C0 0.73066 1.21935 -0.281439 2.72368 0.0695305L19.0866 3.88707C20.5909 4.23802 21.8103 5.37994 21.8103 6.44043V22.5595C21.8103 23.6187 20.591 24.7619 19.0866 25.1129L2.72368 28.9304C1.21943 29.2814 0 28.2711 0 26.6698V2.33008ZM4.63469 8.24347C4.63469 6.95202 5.69692 6.05767 7.00466 6.24539L14.1168 7.26651C15.4258 7.45439 16.4868 8.43913 16.4868 9.46653C16.4868 10.4936 15.4246 11.2595 14.1168 11.1773L7.00466 10.7306C5.69578 10.6484 4.63469 9.53512 4.63469 8.24347ZM4.50856 14.4999C4.50856 13.1632 5.6081 12.1239 6.9617 12.1786L14.3236 12.4759C15.6785 12.5306 16.7768 13.4366 16.7768 14.4999C16.7768 15.5631 15.6773 16.4694 14.3236 16.524L6.9617 16.8213C5.60686 16.876 4.50856 15.837 4.50856 14.4999ZM7.36095 23.2278C8.86669 22.9981 10.0873 21.7174 10.0873 20.3673C10.0873 19.0171 8.86669 17.9992 7.36095 18.0938C5.85531 18.1884 4.63469 19.4691 4.63469 20.9544C4.63469 22.4396 5.85531 23.4575 7.36095 23.2278Z" fill="url(#paint0_linear)"/>
<defs>
<linearGradient id="paint0_linear" x1="-19.2637" y1="-16.0535" x2="-19.9587" y2="65.2175" gradientUnits="userSpaceOnUse">
<stop stop-color="#1400FF"/>
<stop offset="1" stop-color="#FC199B"/>
</linearGradient>
</defs>
</svg>
